<?xml version="1.0" standalone="no"?><!DOCTYPE svg PUBLIC "-//W3C//DTD SVG 1.1//EN" "http://www.w3.org/Graphics/SVG/1.1/DTD/svg11.dtd"><svg t="1589552182902" class="icon" viewBox="0 0 1024 1024" version="1.1" xmlns="http://www.w3.org/2000/svg" p-id="20830" xmlns:xlink="http://www.w3.org/1999/xlink" width="200" height="200"><defs><style type="text/css"></style></defs><path d="M523.607053 459.123426c95.435768 0 175.395466 7.738035 247.617128 23.214105 41.269521 10.31738 77.380353 18.055416 105.753149 30.952142l-366.267003-366.267003-363.687657 363.687657c30.952141-12.896725 72.221662-23.214106 121.229219-30.952141 77.380353-12.896725 162.498741-20.634761 255.355164-20.63476z" fill="#FDD000" p-id="20831"></path><path d="M510.710327 879.556675l363.687658-363.687657c-51.586902-5.15869-121.229219-5.15869-208.926952 2.579345-95.435768 7.738035-157.34005 15.476071-193.450882 28.372796-30.952141 10.31738-49.007557 25.793451-43.848866 38.690176 0 5.15869 2.579345 12.896725 7.738035 18.055416l10.31738 7.738035c12.896725 10.31738 20.634761 12.896725 23.214106 15.47607 12.896725 10.31738 15.476071 23.214106 12.896725 36.110832-5.15869 20.634761-43.848866 41.269521-121.229219 64.483627l149.602015 152.18136z" fill="#293C90" p-id="20832"></path></svg>