<?xml version="1.0" standalone="no"?><!DOCTYPE svg PUBLIC "-//W3C//DTD SVG 1.1//EN" "http://www.w3.org/Graphics/SVG/1.1/DTD/svg11.dtd"><svg t="1577371212720" class="icon" viewBox="0 0 1024 1024" version="1.1" xmlns="http://www.w3.org/2000/svg" p-id="2951" xmlns:xlink="http://www.w3.org/1999/xlink" width="200" height="200"><defs><style type="text/css"></style></defs><path d="M329.142857 658.285714H365.714286a146.285714 146.285714 0 1 0 292.571428 0h256V109.714286h-585.142857V658.285714z m-24.137143 73.142857H73.142857v219.428572h877.714286v-219.428572H718.994286a219.501714 219.501714 0 0 1-413.988572 0zM256 256h-146.285714V658.285714h146.285714V256z m0-73.142857v-146.285714h731.428571V658.285714h36.571429v365.714286H0V658.285714h36.571429V182.857143h219.428571zM438.857143 219.428571h365.714286v73.142858H438.857143V219.428571z m0 219.428572h365.714286v73.142857H438.857143V438.857143z" fill="#646464" p-id="2952"></path></svg>