<?xml version="1.0" standalone="no"?><!DOCTYPE svg PUBLIC "-//W3C//DTD SVG 1.1//EN" "http://www.w3.org/Graphics/SVG/1.1/DTD/svg11.dtd"><svg t="1577371148252" class="icon" viewBox="0 0 1024 1024" version="1.1" xmlns="http://www.w3.org/2000/svg" p-id="986" xmlns:xlink="http://www.w3.org/1999/xlink" width="200" height="200"><defs><style type="text/css"></style></defs><path d="M585.817966 804.571429h365.714285v73.142857-219.428572 73.142857H585.817966v73.142858z m0 73.142857v73.142857h365.714285v-73.142857H585.817966z m365.714285-219.428572V585.142857H585.817966v73.142857h365.714285z m-73.142857-146.285714h109.714286a36.571429 36.571429 0 0 1 36.571429 36.571429v438.857142a36.571429 36.571429 0 0 1-36.571429 36.571429h-438.857143a36.571429 36.571429 0 0 1-36.571428-36.571429V950.857143H110.389394a36.571429 36.571429 0 0 1-36.571428-36.571429v-438.857143a36.571429 36.571429 0 0 1 73.142857 0V877.714286h365.714286V548.571429a36.571429 36.571429 0 0 1 36.571428-36.571429H805.246537v-36.571429a36.571429 36.571429 0 1 1 73.142857 0V512z m13.165715-81.627429L476.10368 84.187429 60.652251 430.372571a36.571429 36.571429 0 1 1-46.811428-56.173714l438.857143-365.714286a36.571429 36.571429 0 0 1 46.811428 0l438.857143 365.714286a36.571429 36.571429 0 0 1-46.811428 56.173714z" fill="#646464" p-id="987"></path></svg>