<?xml version="1.0" standalone="no"?><!DOCTYPE svg PUBLIC "-//W3C//DTD SVG 1.1//EN" "http://www.w3.org/Graphics/SVG/1.1/DTD/svg11.dtd"><svg t="1577371185557" class="icon" viewBox="0 0 1024 1024" version="1.1" xmlns="http://www.w3.org/2000/svg" p-id="2034" xmlns:xlink="http://www.w3.org/1999/xlink" width="200" height="200"><defs><style type="text/css"></style></defs><path d="M292.571429 914.285714H168.228571a21.942857 21.942857 0 0 1-21.942857-21.942857v-51.2H19.748571c-10.971429 0-19.748571-9.801143-19.748571-21.942857V204.8c0-12.141714 8.777143-21.942857 19.748571-21.942857H146.285714v-51.2a21.942857 21.942857 0 0 1 21.942857-21.942857H292.571429V58.514286a21.942857 21.942857 0 0 1 21.942857-21.942857h687.542857a21.942857 21.942857 0 0 1 21.942857 21.942857v906.971428a21.942857 21.942857 0 0 1-21.942857 21.942857H314.514286a21.942857 21.942857 0 0 1-21.942857-21.942857v-51.2z m0-73.142857v-658.285714H219.428571v658.285714h73.142858z m-146.285715-585.142857H73.142857v512h73.142857v-512z m219.428572-146.285714v804.571428h585.142857v-804.571428H365.714286z m95.085714 73.142857h175.542857a21.942857 21.942857 0 0 1 21.942857 21.942857v175.542857a21.942857 21.942857 0 0 1-21.942857 21.942857H460.8a21.942857 21.942857 0 0 1-21.942857-21.942857V204.8a21.942857 21.942857 0 0 1 21.942857-21.942857z m51.2 146.285714h73.142857v-73.142857H512v73.142857z m-36.571429 146.285714h365.714286a36.571429 36.571429 0 1 1 0 73.142858h-365.714286a36.571429 36.571429 0 0 1 0-73.142858z m0 146.285715h365.714286a36.571429 36.571429 0 1 1 0 73.142857h-365.714286a36.571429 36.571429 0 0 1 0-73.142857z m0 146.285714h365.714286a36.571429 36.571429 0 1 1 0 73.142857h-365.714286a36.571429 36.571429 0 1 1 0-73.142857z" fill="#646464" p-id="2035"></path></svg>