<?xml version="1.0" standalone="no"?><!DOCTYPE svg PUBLIC "-//W3C//DTD SVG 1.1//EN" "http://www.w3.org/Graphics/SVG/1.1/DTD/svg11.dtd"><svg t="1577371231598" class="icon" viewBox="0 0 1024 1024" version="1.1" xmlns="http://www.w3.org/2000/svg" p-id="3475" xmlns:xlink="http://www.w3.org/1999/xlink" width="200" height="200"><defs><style type="text/css"></style></defs><path d="M745.033143 549.741714a219.428571 219.428571 0 1 1-91.209143 30.866286A329.142857 329.142857 0 0 0 182.857143 877.714286a36.571429 36.571429 0 1 1-73.142857 0 402.432 402.432 0 0 1 256.146285-374.930286 256 256 0 1 1 292.278858 0c31.012571 12.141714 60.196571 27.940571 86.893714 46.957714zM329.142857 292.571429a182.857143 182.857143 0 1 0 365.714286 0 182.857143 182.857143 0 0 0-365.714286 0z m438.857143 621.714285a146.285714 146.285714 0 1 0 0-292.571428 146.285714 146.285714 0 0 0 0 292.571428z m-40.448-217.526857l40.448 80.896 40.448-80.896a36.571429 36.571429 0 1 1 65.389714 32.768l-73.142857 146.285714a36.571429 36.571429 0 0 1-65.389714 0l-73.142857-146.285714a36.571429 36.571429 0 0 1 65.389714-32.768z" fill="#646464" p-id="3476"></path></svg>