<?xml version="1.0" standalone="no"?><!DOCTYPE svg PUBLIC "-//W3C//DTD SVG 1.1//EN" "http://www.w3.org/Graphics/SVG/1.1/DTD/svg11.dtd"><svg t="1577371167614" class="icon" viewBox="0 0 1024 1024" version="1.1" xmlns="http://www.w3.org/2000/svg" p-id="1510" xmlns:xlink="http://www.w3.org/1999/xlink" width="200" height="200"><defs><style type="text/css"></style></defs><path d="M292.571429 621.714286v-73.142857H219.428571a36.571429 36.571429 0 0 1 0-73.142858h58.002286L193.536 391.606857a36.571429 36.571429 0 1 1 51.785143-51.785143L329.142857 423.716571l83.821714-83.894857a36.571429 36.571429 0 1 1 51.785143 51.785143L380.854857 475.428571H438.857143a36.571429 36.571429 0 0 1 0 73.142858H365.714286v73.142857h73.142857a36.571429 36.571429 0 0 1 0 73.142857H365.714286v36.571428a36.571429 36.571429 0 1 1-73.142857 0v-36.571428H219.428571a36.571429 36.571429 0 0 1 0-73.142857h73.142858zM731.428571 73.142857a73.142857 73.142857 0 0 0 146.285715 0h73.142857a73.142857 73.142857 0 0 1 73.142857 73.142857v731.428572a73.142857 73.142857 0 0 1-73.142857 73.142857H73.142857a73.142857 73.142857 0 0 1-73.142857-73.142857V146.285714a73.142857 73.142857 0 0 1 73.142857-73.142857h73.142857a73.142857 73.142857 0 1 0 146.285715 0h146.285714a73.142857 73.142857 0 1 0 146.285714 0h146.285714zM638.683429 146.285714a146.285714 146.285714 0 0 1-253.366858 0h-39.204571a146.285714 146.285714 0 0 1-253.366857 0H73.142857v731.428572h877.714286V146.285714h-19.602286a146.285714 146.285714 0 0 1-253.366857 0h-39.204571zM658.285714 475.428571h182.857143a36.571429 36.571429 0 1 1 0 73.142858H658.285714a36.571429 36.571429 0 0 1 0-73.142858z m0 146.285715h109.714286a36.571429 36.571429 0 1 1 0 73.142857H658.285714a36.571429 36.571429 0 0 1 0-73.142857z" fill="#666666" p-id="1511"></path></svg>