<?xml version="1.0" standalone="no"?><!DOCTYPE svg PUBLIC "-//W3C//DTD SVG 1.1//EN" "http://www.w3.org/Graphics/SVG/1.1/DTD/svg11.dtd"><svg t="1577371136810" class="icon" viewBox="0 0 1024 1024" version="1.1" xmlns="http://www.w3.org/2000/svg" p-id="855" xmlns:xlink="http://www.w3.org/1999/xlink" width="200" height="200"><defs><style type="text/css"></style></defs><path d="M163.620571 310.857143a109.714286 109.714286 0 0 0-22.235428-136.923429L404.260571 20.772571a109.714286 109.714286 0 0 0 215.478858 0l262.875428 153.161143A109.714286 109.714286 0 0 0 987.428571 360.96v302.08a109.714286 109.714286 0 0 0-104.886857 187.026286l-262.802285 153.088a109.714286 109.714286 0 0 0-215.478858 0l-262.802285-153.088A109.714286 109.714286 0 0 0 36.571429 663.04v-302.08a109.714286 109.714286 0 0 0 127.049142-50.102857zM109.714286 434.176v155.648a182.710857 182.710857 0 0 1 132.827428 234.496l133.266286 77.604571a182.710857 182.710857 0 0 1 272.384 0l133.266286-77.531428A182.710857 182.710857 0 0 1 914.285714 589.750857V434.176a182.710857 182.710857 0 0 1-132.827428-234.569143L648.192 122.148571a182.710857 182.710857 0 0 1-272.384 0l-133.266286 77.531429A182.710857 182.710857 0 0 1 109.714286 434.176zM512 694.857143a182.857143 182.857143 0 1 1 0-365.714286 182.857143 182.857143 0 0 1 0 365.714286z m0-73.142857a109.714286 109.714286 0 1 0 0-219.428572 109.714286 109.714286 0 0 0 0 219.428572z" fill="#666666" p-id="856"></path></svg>