<?xml version="1.0" standalone="no"?><!DOCTYPE svg PUBLIC "-//W3C//DTD SVG 1.1//EN" "http://www.w3.org/Graphics/SVG/1.1/DTD/svg11.dtd"><svg t="1577371172014" class="icon" viewBox="0 0 1024 1024" version="1.1" xmlns="http://www.w3.org/2000/svg" p-id="1641" xmlns:xlink="http://www.w3.org/1999/xlink" width="200" height="200"><defs><style type="text/css"></style></defs><path d="M776.704 438.857143L591.945143 118.857143a19.163429 19.163429 0 0 0-26.331429-6.582857L92.672 385.462857a19.163429 19.163429 0 0 0-7.533714 26.038857L146.285714 517.266286V514.925714C146.285714 472.941714 185.344 438.857143 233.472 438.857143h543.232z m84.406857 0h2.56C911.798857 438.857143 950.857143 472.941714 950.857143 514.925714v433.005715c0 41.984-39.058286 76.068571-87.186286 76.068571H233.472C185.344 1024 146.285714 989.915429 146.285714 947.931429V663.552L18.139429 441.563429a85.504 85.504 0 0 1 32.548571-116.443429L534.454857 45.860571a85.504 85.504 0 0 1 117.028572 29.988572l208.091428 360.301714 1.462857 2.706286zM239.177143 512c-10.971429 0-19.748571 7.314286-19.748572 16.457143v405.942857c0 9.069714 8.777143 16.457143 19.748572 16.457143h618.788571c10.971429 0 19.748571-7.314286 19.748572-16.457143v-405.942857c0-9.069714-8.777143-16.457143-19.748572-16.457143H239.177143z m121.636571 201.142857l253.366857-146.285714a36.571429 36.571429 0 1 1 36.571429 63.341714l-253.366857 146.285714a36.571429 36.571429 0 1 1-36.571429-63.341714z m73.142857 146.285714l253.366858-146.285714a36.571429 36.571429 0 1 1 36.571428 63.341714l-253.366857 146.285715a36.571429 36.571429 0 1 1-36.571429-63.341715z" fill="#646464" p-id="1642"></path></svg>