<?xml version="1.0" standalone="no"?><!DOCTYPE svg PUBLIC "-//W3C//DTD SVG 1.1//EN" "http://www.w3.org/Graphics/SVG/1.1/DTD/svg11.dtd"><svg t="1577371162328" class="icon" viewBox="0 0 1024 1024" version="1.1" xmlns="http://www.w3.org/2000/svg" p-id="1379" xmlns:xlink="http://www.w3.org/1999/xlink" width="200" height="200"><defs><style type="text/css"></style></defs><path d="M858.51769 946.743669a219.407571 219.407571 0 1 1 51.707051-51.707051l66.480494 66.407358a36.567928 36.567928 0 0 1-51.780186 51.780187l-66.407359-66.480494zM292.592429 109.703785V73.135857a73.135857 73.135857 0 0 1 73.135857-73.135857h146.271714a73.135857 73.135857 0 0 1 73.135857 73.135857v36.567928h73.135857A182.839642 182.839642 0 0 1 841.111356 292.543428v219.407571a36.567928 36.567928 0 1 1-73.135857 0V292.543428A109.703785 109.703785 0 0 0 658.271714 182.839642H219.456572A109.703785 109.703785 0 0 0 109.752787 292.543428v438.815142A109.703785 109.703785 0 0 0 219.456572 841.062355h255.9755a36.567928 36.567928 0 1 1 0 73.135857H219.456572A182.839642 182.839642 0 0 1 36.61693 731.35857V292.543428A182.839642 182.839642 0 0 1 219.456572 109.703785h73.135857z m73.135857 0h146.271714V73.135857H365.728286v36.567928zM256.024501 292.543428h365.679284a36.567928 36.567928 0 0 1 0 73.135857h-365.679284a36.567928 36.567928 0 0 1 0-73.135857z m0 146.271714h365.679284a36.567928 36.567928 0 0 1 0 73.135857h-365.679284a36.567928 36.567928 0 0 1 0-73.135857z m0 146.271714h219.407571a36.567928 36.567928 0 0 1 0 73.135857h-219.407571a36.567928 36.567928 0 0 1 0-73.135857z m475.38307 329.111356a146.271714 146.271714 0 1 0 0-292.543428 146.271714 146.271714 0 0 0 0 292.543428z" fill="#666666" p-id="1380"></path></svg>