<?xml version="1.0" standalone="no"?><!DOCTYPE svg PUBLIC "-//W3C//DTD SVG 1.1//EN" "http://www.w3.org/Graphics/SVG/1.1/DTD/svg11.dtd"><svg t="1589552041328" class="icon" viewBox="0 0 1024 1024" version="1.1" xmlns="http://www.w3.org/2000/svg" p-id="11445" xmlns:xlink="http://www.w3.org/1999/xlink" width="200" height="200"><defs><style type="text/css"></style></defs><path d="M0 512a512 512 0 1 0 1024 0A512 512 0 1 0 0 512z" fill="#FFFFFF" p-id="11446"></path><path d="M502.784 163.072s62.464-49.92 172.288-12.544c0 0 37.376 12.544 79.872 52.48L887.296 340.48l-69.888 70.144-199.68-205.056c-2.56-2.56-37.376-42.496-114.944-42.496z m289.792 270.08l-82.432 80.128s-12.544 19.968-25.088 0l-152.32-147.712s-12.544-17.408-22.528-2.56l-152.32 157.696s-9.984 15.104 2.56 22.528l149.76 150.016s12.544 19.968 22.528 5.12l154.88-157.696s5.12-12.544 29.952-9.984h157.44s7.424 160-114.944 262.656c0 0-159.744 160-379.648 62.464 0 0-209.92-72.448-209.92-347.648 0 0 5.12-182.528 172.288-280.064 0 0 122.368-90.112 219.904-22.528l229.888 227.584z" fill="#0066B3" p-id="11447"></path></svg>