<?xml version="1.0" standalone="no"?><!DOCTYPE svg PUBLIC "-//W3C//DTD SVG 1.1//EN" "http://www.w3.org/Graphics/SVG/1.1/DTD/svg11.dtd"><svg t="1577371203939" class="icon" viewBox="0 0 1024 1024" version="1.1" xmlns="http://www.w3.org/2000/svg" p-id="2689" xmlns:xlink="http://www.w3.org/1999/xlink" width="200" height="200"><defs><style type="text/css"></style></defs><path d="M336.458271 365.718518h351.083458c175.541729 171.738325 263.312593 305.296323 263.312593 400.673995C950.854322 909.532164 804.569548 1024 746.055638 1024H277.944362C219.430452 1024 73.145678 909.532164 73.145678 766.392513 73.145678 671.014841 160.916543 537.456842 336.458271 365.718518zM146.288065 766.392513C146.288065 849.774834 241.665738 950.857613 277.944362 950.857613h468.111276c36.278624 0 131.656296-101.082779 131.656297-184.4651C877.711935 700.125511 805.520399 587.33995 657.480208 438.860904H366.44665C218.479601 587.33995 146.288065 700.125511 146.288065 766.392513zM336.458271 292.576131C258.415344 221.628015 219.430452 163.991814 219.430452 119.667528 219.430452 53.181098 277.944362 29.263538 336.458271 29.263538S394.972181 0.006583 453.48609 0.006583c57.270489 0 87.770864 58.51391 117.02782 58.513909 28.964385 0 62.390456-59.172191 117.027819-58.513909 58.51391 0.731424 117.027819 85.284023 117.027819 119.660945C804.569548 163.991814 765.584656 221.628015 687.541729 292.576131H336.458271zM292.572839 119.667528c0 15.579328 22.966709 51.345956 72.849818 99.766216h293.154686c49.883108-48.42026 72.849817-84.113745 72.849818-99.766216 0-4.60797-35.912912-46.445416-44.763141-46.518558-2.633126 0-8.777086 2.925695-22.454713 13.677626l-13.019345 10.386219c-6.363388 5.119967-11.33707 8.850229-16.676464 12.507348-20.041014 13.677626-39.423747 21.942716-63.999588 21.942716-24.868412 0-44.470571-8.338232-64.365301-22.308428-7.97252-5.485679-35.693485-28.013534-29.549524-23.112994C463.726025 76.001523 457.655207 73.14897 453.48609 73.14897c-11.263928 0-13.16563 0.585139-25.819262 6.948527-31.231799 15.579328-53.686512 22.308428-91.208557 22.308428-33.938068 0-43.885432 6.509672-43.885432 17.261603zM365.715226 512.003291h66.778999L512 669.259423 591.505775 512.003291H658.284774L559.542552 691.787279h67.290995v31.743795H541.915236l-0.511996 0.511997v44.031717h85.576592v31.816938H541.256955V877.715226H482.743045v-77.8235H397.605307V768.001646h85.064596V724.116214l-0.511997-0.511997H397.605307v-31.743796h66.778999L365.715226 512.003291z" fill="#646464" p-id="2690"></path></svg>