<?xml version="1.0" standalone="no"?><!DOCTYPE svg PUBLIC "-//W3C//DTD SVG 1.1//EN" "http://www.w3.org/Graphics/SVG/1.1/DTD/svg11.dtd"><svg t="1577371193390" class="icon" viewBox="0 0 1024 1024" version="1.1" xmlns="http://www.w3.org/2000/svg" p-id="2296" xmlns:xlink="http://www.w3.org/1999/xlink" width="200" height="200"><defs><style type="text/css"></style></defs><path d="M658.285714 694.857143h73.142857a36.571429 36.571429 0 1 1 0 73.142857H658.285714v36.571429a36.571429 36.571429 0 1 1-73.142857 0v-36.571429H512a36.571429 36.571429 0 1 1 0-73.142857h73.142857V658.285714H512a36.571429 36.571429 0 0 1 0-73.142857h73.142857v-21.430857L486.107429 464.749714a36.571429 36.571429 0 1 1 51.785142-51.785143L621.714286 496.859429l83.821714-83.894858a36.571429 36.571429 0 0 1 51.785143 51.785143L658.285714 563.712V585.142857h73.142857a36.571429 36.571429 0 1 1 0 73.142857H658.285714v36.571429zM73.142857 219.428571a36.571429 36.571429 0 0 1-73.142857 0v-36.571428a146.285714 146.285714 0 0 1 146.285714-146.285714h731.428572a146.285714 146.285714 0 0 1 146.285714 146.285714V219.428571a36.571429 36.571429 0 1 1-73.142857 0v-36.571428a73.142857 73.142857 0 0 0-73.142857-73.142857H146.285714a73.142857 73.142857 0 0 0-73.142857 73.142857V219.428571z m292.571429 694.857143h512a73.142857 73.142857 0 0 0 73.142857-73.142857v-73.142857a182.710857 182.710857 0 0 1 0-292.571429v-73.142857a73.142857 73.142857 0 0 0-73.142857-73.142857H365.714286a36.571429 36.571429 0 0 1 0-73.142857h512a146.285714 146.285714 0 0 1 146.285714 146.285714v113.810286l-18.285714 10.532571a109.641143 109.641143 0 0 0 0 190.171429l18.285714 10.532571V841.142857a146.285714 146.285714 0 0 1-146.285714 146.285714H365.714286a36.571429 36.571429 0 1 1 0-73.142857z m-146.285715 73.142857H146.285714a146.285714 146.285714 0 0 1-146.285714-146.285714V727.332571L18.285714 716.8a109.641143 109.641143 0 0 0 0-190.171429L0 516.096V402.285714a146.285714 146.285714 0 0 1 146.285714-146.285714h73.142857a36.571429 36.571429 0 0 1 0 73.142857H146.285714a73.142857 73.142857 0 0 0-73.142857 73.142857v73.142857a182.710857 182.710857 0 0 1 0 292.571429v73.142857a73.142857 73.142857 0 0 0 73.142857 73.142857h73.142857a36.571429 36.571429 0 1 1 0 73.142857zM292.571429 438.857143a36.571429 36.571429 0 1 1 0-73.142857 36.571429 36.571429 0 0 1 0 73.142857z m0 109.714286a36.571429 36.571429 0 1 1 0-73.142858 36.571429 36.571429 0 0 1 0 73.142858zM292.571429 658.285714a36.571429 36.571429 0 1 1 0-73.142857 36.571429 36.571429 0 0 1 0 73.142857z m0 109.714286a36.571429 36.571429 0 1 1 0-73.142857 36.571429 36.571429 0 0 1 0 73.142857zM292.571429 877.714286a36.571429 36.571429 0 1 1 0-73.142857 36.571429 36.571429 0 0 1 0 73.142857z" fill="#646464" p-id="2297"></path></svg>