<?xml version="1.0" standalone="no"?><!DOCTYPE svg PUBLIC "-//W3C//DTD SVG 1.1//EN" "http://www.w3.org/Graphics/SVG/1.1/DTD/svg11.dtd"><svg t="1577371200898" class="icon" viewBox="0 0 1024 1024" version="1.1" xmlns="http://www.w3.org/2000/svg" p-id="2558" xmlns:xlink="http://www.w3.org/1999/xlink" width="200" height="200"><defs><style type="text/css"></style></defs><path d="M111.098149 768H36.63872A36.571429 36.571429 0 0 1 0.067291 731.428571V550.619429a35.986286 35.986286 0 0 1 0-4.388572V512a36.571429 36.571429 0 0 1 8.484572-23.405714l182.857143-219.428572A36.571429 36.571429 0 0 1 219.495863 256h182.857143V146.285714a36.571429 36.571429 0 0 1 36.571428-36.571428h548.571429a36.571429 36.571429 0 0 1 36.571428 36.571428v585.142857a36.571429 36.571429 0 0 1-36.571428 36.571429h-111.030857a128 128 0 0 1-253.366857 0H438.924434a36.425143 36.425143 0 0 1-18.285714-4.900571 36.425143 36.425143 0 0 1-18.285714 4.900571h-37.888a128 128 0 0 1-253.366857 0z m10.971428-73.142857a128 128 0 0 1 231.424 0H365.781577v-365.714286H236.611291l-30.427428 36.571429H292.63872a36.571429 36.571429 0 0 1 36.571429 36.571428v146.285715A36.571429 36.571429 0 0 1 292.63872 585.142857H73.210149v109.714286h48.859428z m743.424 0H950.924434v-512H475.495863v512h158.573714a128 128 0 0 1 231.424 0zM109.781577 512h146.285714V438.857143H164.63872L109.781577 512z m640 292.571429a54.857143 54.857143 0 1 0 0-109.714286 54.857143 54.857143 0 0 0 0 109.714286z m-512 0a54.857143 54.857143 0 1 0 0-109.714286 54.857143 54.857143 0 0 0 0 109.714286z" fill="#646464" p-id="2559"></path></svg>