<?xml version="1.0" standalone="no"?><!DOCTYPE svg PUBLIC "-//W3C//DTD SVG 1.1//EN" "http://www.w3.org/Graphics/SVG/1.1/DTD/svg11.dtd"><svg t="1577371223567" class="icon" viewBox="0 0 1024 1024" version="1.1" xmlns="http://www.w3.org/2000/svg" p-id="3213" xmlns:xlink="http://www.w3.org/1999/xlink" width="200" height="200"><defs><style type="text/css"></style></defs><path d="M475.428571 621.714286v-73.142857H365.714286a36.571429 36.571429 0 0 1 0-73.142858h99.474285L337.188571 315.392a36.571429 36.571429 0 1 1 57.051429-45.641143L512 416.914286l117.76-147.163429a36.571429 36.571429 0 1 1 57.051429 45.641143L558.811429 475.428571H658.285714a36.571429 36.571429 0 0 1 0 73.142858H548.571429v73.142857H658.285714a36.571429 36.571429 0 0 1 0 73.142857H548.571429v73.142857a36.571429 36.571429 0 1 1-73.142858 0v-73.142857H365.714286a36.571429 36.571429 0 0 1 0-73.142857h109.714285zM585.142857 42.203429l297.106286 171.593142a146.285714 146.285714 0 0 1 73.142857 126.683429v343.04a146.285714 146.285714 0 0 1-73.142857 126.683429L585.142857 981.796571a146.285714 146.285714 0 0 1-146.285714 0l-297.106286-171.593142a146.285714 146.285714 0 0 1-73.142857-126.683429v-343.04a146.285714 146.285714 0 0 1 73.142857-126.683429L438.857143 42.203429a146.285714 146.285714 0 0 1 146.285714 0z m-36.571428 63.341714a73.142857 73.142857 0 0 0-73.142858 0L178.322286 277.211429a73.142857 73.142857 0 0 0-36.571429 63.341714v343.04a73.142857 73.142857 0 0 0 36.571429 63.341714L475.428571 918.454857a73.142857 73.142857 0 0 0 73.142858 0l297.106285-171.593143a73.142857 73.142857 0 0 0 36.571429-63.341714v-343.04a73.142857 73.142857 0 0 0-36.571429-63.341714L548.571429 105.545143z" fill="#666666" p-id="3214"></path></svg>